<svg width="198" height="198" viewBox="0 0 198 198" fill="none" xmlns="http://www.w3.org/2000/svg">
<rect x="57.0742" y="57.0723" width="27.286" height="27.286" rx="13.643" fill="black" stroke="black"/>
<rect x="57.0742" y="85.3574" width="27.286" height="27.286" rx="13.643" fill="black" stroke="black"/>
<rect x="28.7876" y="28.7849" width="27.286" height="27.286" rx="13.643" fill="black" stroke="black"/>
<rect x="141.927" y="28.7849" width="27.286" height="27.286" rx="13.643" fill="black" stroke="black"/>
<rect x="28.7876" y="141.929" width="27.286" height="27.286" rx="13.643" fill="black" stroke="black"/>
<rect x="141.927" y="141.929" width="27.286" height="27.286" rx="13.643" fill="black" stroke="black"/>
<rect x="57.0742" y="113.645" width="27.286" height="27.286" rx="13.643" fill="black" stroke="black"/>
<rect x="85.3618" y="57.0723" width="27.286" height="27.286" rx="13.643" fill="black" stroke="black"/>
<rect x="113.641" y="57.0723" width="27.286" height="27.286" rx="13.643" fill="black" stroke="black"/>
<rect x="85.3618" y="113.645" width="27.286" height="27.286" rx="13.643" fill="black" stroke="black"/>
<rect x="113.641" y="113.645" width="27.286" height="27.286" rx="13.643" fill="black" stroke="black"/>
<rect x="116.001" y="83.0007" width="27.286" height="27.286" rx="13.643" fill="black" stroke="black"/>
<rect x="85.3618" y="0.5" width="27.286" height="55.572" rx="13.643" fill="black" stroke="black"/>
<rect x="85.3618" y="141.929" width="27.286" height="55.572" rx="13.643" fill="black" stroke="black"/>
<rect x="0.5" y="112.645" width="27.286" height="55.572" rx="13.643" transform="rotate(-90 0.5 112.645)" fill="black" stroke="black"/>
<rect x="141.927" y="112.645" width="27.286" height="55.572" rx="13.643" transform="rotate(-90 141.927 112.645)" fill="black" stroke="black"/>
</svg>
